<svg width="400" height="150" viewBox="0 0 400 150" fill="none" xmlns="http://www.w3.org/2000/svg">
<path d="M149.648 27.16H106.448L103.064 39.4L103.64 39.76C109.904 31.048 112.928 27.88 120.344 27.88H123.008V72.304C123.008 77.56 122.648 78.28 117.68 78.28V79H138.344V78.28C133.448 78.28 133.088 77.56 133.088 72.304V27.88H135.68C143.168 27.88 145.904 31.048 152.384 39.76L152.96 39.4L149.648 27.16ZM207.145 72.304V52.36C207.145 46.528 204.193 42.28 197.353 42.28C192.385 42.28 187.993 46.096 185.257 49.84C184.465 45.376 181.441 42.28 175.609 42.28C170.281 42.28 166.321 46.456 163.729 49.84L163.009 42.28H162.289L150.553 47.32V48.04C154.729 49.48 155.089 49.84 155.089 55.096V72.304C155.089 77.92 154.729 78.28 150.553 78.28V79H168.265V78.28C164.089 78.28 163.729 77.92 163.729 72.304V50.56C165.529 49.408 167.545 48.04 170.713 48.04C174.673 48.04 176.833 50.2 176.833 54.52V72.304C176.833 77.92 176.473 78.28 172.225 78.28V79H190.009V78.28C185.833 78.28 185.473 77.92 185.473 72.304V52.36C185.473 51.784 185.473 51.208 185.401 50.704C187.129 49.192 189.577 48.04 192.385 48.04C196.345 48.04 198.505 50.2 198.505 54.52V72.304C198.505 77.92 198.145 78.28 193.969 78.28V79H211.753V78.28C207.505 78.28 207.145 77.92 207.145 72.304ZM249.309 25L236.781 28.6V29.32C241.029 31.264 241.389 31.624 241.389 36.88V44.728C238.653 42.856 235.485 42.28 232.749 42.28C222.957 42.28 215.469 49.192 215.469 61.216C215.469 72.664 221.877 79.72 230.229 79.72C235.917 79.72 239.661 75.544 241.389 72.16L242.109 79.72H242.829L254.565 77.344V76.624C250.389 76.624 250.029 76.264 250.029 70.216V25H249.309ZM233.325 74.896C228.141 74.896 224.469 71.08 224.469 60.424C224.469 48.256 227.565 43 232.893 43C237.069 43 241.389 45.808 241.389 57.616V71.44C239.805 73.024 237.213 74.896 233.325 74.896ZM281.471 42.28C275.855 42.28 271.751 46.384 270.095 49.768V25H269.375L256.919 28.6V29.32C261.095 31.264 261.455 31.624 261.455 36.88V79H262.175L266.999 75.04C270.383 78.64 274.919 79.72 278.735 79.72C288.527 79.72 296.015 72.808 296.015 60.784C296.015 49.336 289.823 42.28 281.471 42.28ZM278.591 79C274.343 79 270.095 76.192 270.095 63.664V50.56C271.607 48.976 274.199 47.104 278.159 47.104C283.271 47.104 287.015 50.92 287.015 61.576C287.015 73.744 283.919 79 278.591 79Z" fill="black"/>
<path d="M74.0938 122.84L67.6378 114.848L72.4378 109.88C73.4698 108.8 74.5738 107.96 76.3738 107.96V107.72H69.8938V107.96C72.1018 107.96 72.5338 109.4 71.7657 110.192L66.8218 115.304C66.1978 115.976 65.5978 116.096 64.6138 116.12V109.88C64.6138 108.2 64.7338 107.96 66.5338 107.96V107.72H60.0538V107.96C61.8538 107.96 61.9738 108.2 61.9738 109.88V122.84C61.9738 124.52 61.8538 124.76 60.0538 124.76V125H66.5338V124.76C64.7338 124.76 64.6138 124.52 64.6138 122.84V116.36C65.1658 116.384 65.4538 116.48 65.8138 116.912L72.2938 125H77.0938V124.76C75.7738 124.76 74.8618 123.8 74.0938 122.84ZM88.6194 122.84V116.12C88.6194 114.176 87.7074 112.76 85.4994 112.76C83.7234 112.76 82.2834 114.224 81.4194 115.208L81.1794 112.76H80.9394L77.5794 114.44V114.68C79.1394 115.16 79.2594 115.28 79.2594 116.96V122.84C79.2594 124.64 79.1394 124.76 77.5794 124.76V125H83.0994V124.76C81.5394 124.76 81.4194 124.64 81.4194 122.84V115.448C82.0914 114.968 82.8834 114.44 84.1794 114.44C85.4994 114.44 86.4594 115.088 86.4594 116.84V122.84C86.4594 124.64 86.3394 124.76 84.7794 124.76V125H90.2994V124.76C88.7394 124.76 88.6194 124.64 88.6194 122.84ZM97.5978 125.24C101.198 125.24 103.478 122.48 103.478 119C103.478 115.52 101.198 112.76 97.5978 112.76C93.9978 112.76 91.7178 115.52 91.7178 119C91.7178 122.48 93.9978 125.24 97.5978 125.24ZM97.5978 125C95.1978 125 93.9978 122.72 93.9978 119C93.9978 115.28 95.1978 113 97.5978 113C99.9978 113 101.198 115.28 101.198 119C101.198 122.72 99.9978 125 97.5978 125ZM118.722 113V113.24C120.522 113.24 120.954 113.912 120.402 115.64L118.05 123.104L115.242 115.16C114.786 113.864 115.122 113.24 116.682 113.24V113H111.042V113.24C112.122 113.24 112.506 113.912 112.962 115.16L113.178 115.736L110.85 123.104L108.042 115.16C107.586 113.864 107.922 113.24 109.482 113.24V113H103.842V113.24C104.922 113.24 105.306 113.912 105.762 115.16L109.362 125.12H110.442L113.298 116.096L116.562 125.12H117.642L120.642 115.64C121.146 114.08 121.962 113.24 123.042 113.24V113H118.722ZM127.123 122.84V107H126.883L123.283 108.2V108.44C124.843 109.16 124.963 109.28 124.963 110.96V122.84C124.963 124.64 124.843 124.76 123.283 124.76V125H128.803V124.76C127.243 124.76 127.123 124.64 127.123 122.84ZM136.634 124.28C134.186 124.28 132.506 122.072 132.506 118.64C132.506 118.088 132.53 117.56 132.602 117.08H140.906C140.426 114.176 138.554 112.76 135.986 112.76C132.41 112.76 130.226 115.304 130.226 119C130.226 122.696 132.41 125.24 135.986 125.24C139.058 125.24 140.426 123.08 140.906 121.16L140.69 121.112C140.234 122.912 138.962 124.28 136.634 124.28ZM135.914 113C137.282 113 138.29 113.792 138.482 116.84H132.626C133.01 114.392 134.21 113 135.914 113ZM153.612 107L150.012 108.2V108.44C151.572 109.16 151.692 109.28 151.692 110.96V113.864C150.66 113.024 149.412 112.76 148.332 112.76C144.996 112.76 142.812 115.304 142.812 119C142.812 122.696 144.996 125.24 147.852 125.24C149.724 125.24 151.092 123.848 151.692 122.816L151.932 125.24H152.172L155.532 124.52V124.28C153.972 124.28 153.852 124.16 153.852 122.24V107H153.612ZM148.5 123.92C146.652 123.92 145.092 122.552 145.092 118.88C145.092 114.944 146.412 113 148.38 113C149.748 113 151.692 113.696 151.692 117.68V122.552C151.116 123.152 150.132 123.92 148.5 123.92ZM164.264 122.6H158.864C158.216 122.6 157.664 122.408 157.664 121.76C157.664 121.064 158.312 120.584 159.68 120.056C160.352 120.32 161.096 120.44 161.864 120.44C164.264 120.44 166.544 119.24 166.544 116.6C166.544 115.52 166.16 114.68 165.536 114.056C166.544 114.272 167.168 114.92 167.864 114.92C168.584 114.92 168.944 114.44 168.944 113.84C168.944 113.24 168.584 112.76 167.864 112.76C167.096 112.76 166.424 113.624 165.248 113.792C164.36 113.096 163.136 112.76 161.864 112.76C159.464 112.76 157.184 113.96 157.184 116.6C157.184 118.256 158.096 119.36 159.368 119.936C157.808 120.536 156.704 121.376 156.704 122.6C156.704 124.184 158.144 124.76 159.416 124.76H159.656C157.472 125.552 156.464 126.752 156.464 127.88C156.464 130.52 159.464 131 162.104 131C165.944 131 168.704 129.08 168.704 126.2C168.704 123.8 167.144 122.6 164.264 122.6ZM161.864 113C163.064 113 164.264 113.6 164.264 116.6C164.264 119.6 163.064 120.2 161.864 120.2C160.664 120.2 159.464 119.6 159.464 116.6C159.464 113.6 160.664 113 161.864 113ZM162.104 130.76C159.944 130.76 158.264 129.92 158.264 127.64C158.264 126.08 159.32 125.24 160.256 124.76H163.784C165.704 124.76 166.664 125.48 166.664 126.92C166.664 129.44 164.744 130.76 162.104 130.76ZM175.47 124.28C173.022 124.28 171.342 122.072 171.342 118.64C171.342 118.088 171.366 117.56 171.438 117.08H179.742C179.262 114.176 177.39 112.76 174.822 112.76C171.246 112.76 169.062 115.304 169.062 119C169.062 122.696 171.246 125.24 174.822 125.24C177.894 125.24 179.262 123.08 179.742 121.16L179.526 121.112C179.07 122.912 177.798 124.28 175.47 124.28ZM174.75 113C176.118 113 177.126 113.792 177.318 116.84H171.462C171.846 114.392 173.046 113 174.75 113ZM202.796 115.88V115.64H197.996V115.88C199.796 115.88 200.468 116.6 200.276 117.8C200.06 119.096 199.652 120.392 198.98 121.496L193.244 114.992C195.692 114.128 196.916 112.232 196.916 110.744C196.916 108.68 195.404 107.48 192.86 107.48C190.292 107.48 188.156 109.016 188.156 111.416C188.156 112.976 189.116 114.272 190.532 115.856L190.604 115.928C188.444 116.888 186.236 118.4 186.236 120.92C186.236 123.584 188.516 125.24 191.996 125.24C194.444 125.24 196.172 124.592 197.42 123.656L198.596 125H202.796V124.76C201.956 124.76 201.26 124.112 200.156 122.84L199.172 121.712C200.084 120.248 200.372 118.688 200.516 117.8C200.708 116.6 200.996 115.88 202.796 115.88ZM193.028 107.72C194.636 107.72 195.236 109.328 195.236 110.6C195.236 111.848 194.708 114.128 193.124 114.848C191.828 113.384 190.556 112.088 190.556 110.336C190.556 109.256 191.276 107.72 193.028 107.72ZM193.004 124.76C190.268 124.76 188.996 122.696 188.996 120.536C188.996 118.712 189.524 117.2 190.772 116.144L197.228 123.44C196.148 124.256 194.756 124.76 193.004 124.76ZM215.772 107.72H208.812V107.96C210.612 107.96 210.732 108.2 210.732 109.88V122.84C210.732 124.52 210.612 124.76 208.812 124.76V125H216.732C222.588 125 226.332 121.256 226.332 116.36C226.332 111.464 222.588 107.72 215.772 107.72ZM216.732 124.76H215.772C213.732 124.76 213.372 124.04 213.372 121.64V107.96H215.772C221.196 107.96 223.572 110.96 223.572 116.36C223.572 121.76 220.716 124.76 216.732 124.76ZM230.926 125.24C232.438 125.24 233.638 124.352 234.742 122.96C234.742 124.52 235.63 125.24 236.782 125.24C237.742 125.24 238.702 124.64 239.302 122.96L239.11 122.888C238.87 123.512 238.51 124.28 237.742 124.28C237.214 124.28 236.902 123.92 236.902 123.32V115.16C236.902 113.336 235.966 112.76 234.382 112.76C233.326 112.76 232.222 113.144 230.638 114.128C228.838 115.256 228.382 115.904 228.382 116.576C228.382 117.176 228.766 117.56 229.342 117.56C230.446 117.56 230.782 116.576 230.782 114.296C231.286 113.984 232.054 113.456 233.182 113.456C234.238 113.456 234.742 114.008 234.742 115.136V117.92C230.182 120.152 228.502 121.064 228.502 122.744C228.502 124.304 229.462 125.24 230.926 125.24ZM232.462 124.16C231.478 124.16 230.662 123.488 230.662 122.12C230.662 120.44 231.502 119.624 234.742 118.16V122.72C234.118 123.44 233.446 124.16 232.462 124.16ZM247.924 123.656C247.396 124.136 246.748 124.52 245.908 124.52C244.348 124.52 243.508 123.992 243.508 121.52V113.48H247.588V113H243.508V110.12H243.268L239.668 113.24V113.48H241.348V121.88C241.348 123.824 242.26 125.24 244.468 125.24C246.268 125.24 247.396 124.448 248.068 123.8L247.924 123.656ZM251.34 125.24C252.852 125.24 254.052 124.352 255.156 122.96C255.156 124.52 256.044 125.24 257.196 125.24C258.156 125.24 259.116 124.64 259.716 122.96L259.524 122.888C259.284 123.512 258.924 124.28 258.156 124.28C257.628 124.28 257.316 123.92 257.316 123.32V115.16C257.316 113.336 256.38 112.76 254.796 112.76C253.74 112.76 252.636 113.144 251.052 114.128C249.252 115.256 248.796 115.904 248.796 116.576C248.796 117.176 249.18 117.56 249.756 117.56C250.86 117.56 251.196 116.576 251.196 114.296C251.7 113.984 252.468 113.456 253.596 113.456C254.652 113.456 255.156 114.008 255.156 115.136V117.92C250.596 120.152 248.916 121.064 248.916 122.744C248.916 124.304 249.876 125.24 251.34 125.24ZM252.876 124.16C251.892 124.16 251.076 123.488 251.076 122.12C251.076 120.44 251.916 119.624 255.156 118.16V122.72C254.532 123.44 253.86 124.16 252.876 124.16ZM270.043 116.84H272.947C276.091 116.84 278.923 115.424 278.923 112.28C278.923 109.016 276.091 107.72 272.947 107.72H265.483V107.96C267.283 107.96 267.403 108.2 267.403 109.88V122.84C267.403 124.52 267.283 124.76 265.483 124.76V125H272.203V124.76C270.163 124.76 270.043 124.52 270.043 122.84V116.84ZM270.043 116.6V107.96H272.947C274.627 107.96 276.163 108.848 276.163 112.28C276.163 115.592 274.627 116.6 272.947 116.6H270.043ZM286.612 112.76C285.316 112.76 284.452 114.2 283.732 115.52L283.492 112.76H283.252L279.892 114.44V114.68C281.452 115.16 281.572 115.28 281.572 116.96V122.84C281.572 124.64 281.452 124.76 279.892 124.76V125H285.652V124.76C283.852 124.76 283.732 124.64 283.732 122.84V115.76C284.26 115.064 284.62 114.704 285.172 114.32C285.556 114.896 286.06 115.4 286.852 115.4C287.548 115.4 288.052 114.848 288.052 114.104C288.052 113.216 287.38 112.76 286.612 112.76ZM294.285 125.24C297.885 125.24 300.165 122.48 300.165 119C300.165 115.52 297.885 112.76 294.285 112.76C290.685 112.76 288.405 115.52 288.405 119C288.405 122.48 290.685 125.24 294.285 125.24ZM294.285 125C291.885 125 290.685 122.72 290.685 119C290.685 115.28 291.885 113 294.285 113C296.685 113 297.885 115.28 297.885 119C297.885 122.72 296.685 125 294.285 125ZM304.349 109.88C305.213 109.88 305.909 109.304 305.909 108.44C305.909 107.576 305.213 107 304.349 107C303.485 107 302.789 107.576 302.789 108.44C302.789 109.304 303.485 109.88 304.349 109.88ZM301.589 114.44V114.68C303.149 115.16 303.269 115.28 303.269 116.96V126.272C303.269 129.44 302.813 130.76 301.109 130.76V131C302.693 131 305.429 130.208 305.429 125.24V112.76H305.189L301.589 114.44ZM314.806 124.28C312.358 124.28 310.678 122.072 310.678 118.64C310.678 118.088 310.702 117.56 310.774 117.08H319.078C318.598 114.176 316.726 112.76 314.158 112.76C310.582 112.76 308.398 115.304 308.398 119C308.398 122.696 310.582 125.24 314.158 125.24C317.23 125.24 318.598 123.08 319.078 121.16L318.862 121.112C318.406 122.912 317.134 124.28 314.806 124.28ZM314.086 113C315.454 113 316.462 113.792 316.654 116.84H310.798C311.182 114.392 312.382 113 314.086 113ZM340.759 123.656C340.231 124.136 339.583 124.52 338.743 124.52C337.183 124.52 336.343 123.992 336.343 121.52V113.48H340.423V113H336.343C336.343 109.52 335.839 107 332.335 107C328.975 107 328.015 109.256 328.015 111.56C328.015 111.992 328.039 112.4 328.111 112.808C327.751 112.784 327.391 112.76 326.983 112.76C323.407 112.76 320.983 115.304 320.983 119C320.983 122.696 323.167 125.24 326.743 125.24C329.815 125.24 331.183 123.08 331.663 121.16L331.447 121.112C331.111 122.36 330.199 124.28 327.391 124.28C324.943 124.28 323.263 122.072 323.263 118.64C323.263 115.424 324.511 113 326.959 113C327.391 113 327.775 113.024 328.135 113.144C328.519 115.04 329.383 115.88 330.247 115.88C331.039 115.88 331.375 115.328 331.375 114.8C331.375 113.672 330.199 113.048 328.423 112.832C328.351 112.376 328.303 111.896 328.303 111.44C328.303 109.448 329.143 107.24 332.335 107.24C334.663 107.24 335.455 108.584 335.455 109.928C335.455 111.536 334.687 112.688 332.503 113.24V113.48H334.183V121.88C334.183 123.824 335.095 125.24 337.303 125.24C339.103 125.24 340.231 124.448 340.903 123.8L340.759 123.656Z" fill="black"/>
</svg>
